# Blender 4.4.3
# www.blender.org
mtllib cbarbtm.mtl
o Cylinder
v 32.000000 -73.025009 -22.000002
v 17.000000 -35.025002 -14.000000
v 32.000000 -73.025009 22.000002
v 17.000000 -35.025002 14.000000
v 28.000000 -75.025002 22.000002
v 2.000000 -35.025002 14.000000
v 28.000000 -75.025002 -22.000002
v 2.000000 -35.025002 -14.000000
v 17.000000 -35.025005 -21.000002
v 17.000000 -35.025005 21.000002
v 0.000000 -35.025005 21.000002
v 0.000000 -35.025005 -21.000002
v -11.000001 4.974999 15.000001
v -11.000001 4.974999 -15.000001
v -7.000000 -15.025002 18.000002
v -7.000000 -15.025002 -18.000002
v 2.000000 -5.025001 -17.717001
v 13.000000 4.974999 11.000001
v 2.000000 -5.025001 17.717001
v 13.000000 4.974999 -11.000001
v 23.000002 -55.025009 -21.500002
v 23.000002 -55.025009 21.500002
v 13.000000 -55.025005 21.500002
v 13.000000 -55.025005 -21.500002
v 12.500210 24.975000 -7.217000
v 0.000000 24.975000 -14.434000
v 12.500210 24.975000 7.217000
v 0.000000 24.975000 14.434000
v -12.500210 24.975000 7.217000
v -12.500210 24.975000 -7.217000
v 12.500210 24.975000 -7.217000
v 0.000000 24.975000 -14.434000
v 12.500210 24.975000 7.217000
v 0.000000 24.975000 14.434000
v -12.500210 24.975000 7.217000
v -12.500210 24.975000 -7.217000
v 10.500210 24.975000 -6.062299
v 0.000000 24.975000 -12.124598
v 10.500210 24.975000 6.062299
v 0.000000 24.975000 12.124598
v -10.500210 24.975000 6.062299
v -10.500210 24.975000 -6.062299
v 10.500211 44.974998 -6.062299
v 0.000001 44.974998 -12.124598
v 10.500211 44.974998 6.062299
v 0.000001 44.974998 12.124598
v -10.500209 44.974998 6.062299
v -10.500209 44.974998 -6.062299
v 10.500211 44.974998 -6.062299
v 0.000001 44.974998 -12.124598
v 10.500211 44.974998 6.062299
v 0.000001 44.974998 12.124598
v -10.500209 44.974998 6.062299
v -10.500209 44.974998 -6.062299
v 8.500211 44.974998 -4.907598
v 0.000001 44.974998 -9.815197
v 8.500211 44.974998 4.907598
v 0.000001 44.974998 9.815197
v -8.500209 44.974998 4.907598
v -8.500209 44.974998 -4.907598
v 8.500208 19.975002 -4.907598
v -0.000002 19.975002 -9.815197
v 8.500208 19.975002 4.907598
v -0.000002 19.975002 9.815197
v -8.500212 19.975002 4.907598
v -8.500212 19.975002 -4.907598
v 6.000000 4.974999 11.000001
v 6.000000 4.974999 -11.000001
v -8.000000 4.974999 -11.000001
v -8.000000 4.974999 11.000001
v 13.000000 4.975000 11.000001
v 13.000000 4.975000 -11.000001
v -7.000000 -0.025000 -14.000000
v -7.000000 -0.025000 14.000000
v 3.000000 -0.025000 14.000000
v 3.000000 -0.025000 -14.000000
v 15.000001 -35.025002 14.000000
v 15.000001 -35.025002 -14.000000
v 3.000000 -0.025000 14.000000
v 3.000000 -0.025000 -14.000000
v 15.000001 -35.025002 14.000000
v 15.000001 -35.025002 -14.000000
vn -0.4790 0.2869 0.8296
vn -0.9972 -0.0748 -0.0000
vn -0.4790 0.2869 -0.8296
vn 0.4472 -0.8944 -0.0000
vn -0.8384 -0.5450 -0.0000
vn 0.9578 0.2873 -0.0000
vn -0.9806 -0.1961 -0.0000
vn -0.1221 0.1093 -0.9865
vn -0.0000 0.0250 0.9997
vn -0.0000 0.0250 -0.9997
vn -0.1221 0.1093 0.9865
vn 0.9997 0.0250 -0.0000
vn 0.4575 0.1468 0.8770
vn -0.0318 0.1108 0.9933
vn 0.4575 0.1468 -0.8770
vn -0.0318 0.1108 -0.9933
vn -0.9439 -0.3304 -0.0000
vn -0.0034 0.0241 -0.9997
vn -0.0034 0.0241 0.9997
vn 0.8944 0.4472 -0.0000
vn -0.8000 -0.6000 -0.0000
vn 0.3202 0.2598 0.9111
vn 0.3202 0.2598 -0.9111
vn -0.0000 1.0000 -0.0000
vn 0.5000 -0.0000 -0.8660
vn 1.0000 -0.0000 -0.0000
vn 0.5000 -0.0000 0.8660
vn -0.5000 -0.0000 0.8660
vn -1.0000 -0.0000 -0.0000
vn -0.5000 -0.0000 -0.8660
vn -0.9864 0.1644 -0.0000
vn 0.9994 0.0333 -0.0000
vn 0.4741 -0.3177 -0.8212
vn -0.4829 -0.2592 -0.8364
vn -0.0000 -0.0787 -0.9969
vn -0.4829 -0.2592 0.8364
vn 0.4741 -0.3177 0.8212
vn -0.0000 -0.0787 0.9969
vn -0.8575 0.5145 -0.0000
vn 0.9806 0.1961 -0.0000
vn -0.0000 -0.5145 -0.8575
vn -0.0000 -0.5145 0.8575
vn 0.9685 0.2490 -0.0000
vn -0.0000 -0.0000 -1.0000
vn -0.0000 -0.0000 1.0000
vn -0.2088 -0.0835 0.9744
vn -0.2088 -0.0835 -0.9744
vn 0.9950 0.0995 -0.0000
vt 0.500000 1.000000
vt 0.333333 1.000000
vt 0.333333 0.875000
vt 0.166667 1.000000
vt 0.166667 0.875000
vt -0.000000 0.875000
vt 0.833333 0.500000
vt 0.666667 0.500000
vt 0.333333 0.500000
vt 0.166667 0.500000
vt 0.333333 0.625000
vt 0.333333 0.750000
vt 0.166667 0.750000
vt 0.166667 0.625000
vt 0.833333 0.625000
vt 0.833333 0.750000
vt 0.666667 0.750000
vt 0.666667 0.625000
vt 0.333333 0.812500
vt 0.166667 0.812500
vt 0.416667 0.812500
vt 0.583333 0.875000
vt 0.457846 0.130000
vt 0.510051 0.285000
vt 0.551718 0.465000
vt 0.457846 0.370000
vt 0.250000 0.490000
vt 0.250000 0.010000
vt 0.042154 0.130000
vt 0.042154 0.370000
vt 0.250000 0.451601
vt 0.424591 0.350800
vt 0.424591 0.149200
vt 0.250000 0.048399
vt 0.075409 0.149200
vt 0.075409 0.350800
vt 0.250000 0.413201
vt 0.391336 0.331601
vt 0.391336 0.168399
vt 0.250000 0.086799
vt 0.108664 0.168399
vt 0.108664 0.331601
vt 0.358082 0.312401
vt 0.358082 0.187599
vt 0.141918 0.187599
vt 0.141918 0.312401
vt 0.000000 0.000000
s 0
f 28/1/1 29/2/1 13/3/1
f 13/3/2 29/2/2 30/4/2 14/5/2
f 14/5/3 30/4/3 26/6/3
f 1/7/4 3/8/4 5/9/4 7/10/4
f 23/11/5 11/12/5 12/13/5 24/14/5
f 21/15/6 9/16/6 10/17/6 22/18/6
f 15/19/7 13/3/7 14/5/7 16/20/7
f 16/20/8 14/5/8 26/6/8 17/21/8
f 22/18/9 10/17/9 11/12/9 23/11/9
f 21/15/10 24/14/10 12/13/10 9/16/10
f 15/19/11 19/22/11 28/1/11 13/3/11
f 27/23/12 18/24/12 20/25/12 25/26/12
f 27/23/13 28/1/13 19/22/13 18/24/13
f 11/12/14 10/17/14 19/22/14 15/19/14
f 26/6/15 25/26/15 20/25/15 17/21/15
f 12/13/16 16/20/16 17/21/16 9/16/16
f 11/12/17 15/19/17 16/20/17 12/13/17
f 1/7/18 7/10/18 24/14/18 21/15/18
f 3/8/19 22/18/19 23/11/19 5/9/19
f 1/7/20 21/15/20 22/18/20 3/8/20
f 5/9/21 23/11/21 24/14/21 7/10/21
f 10/17/22 18/24/22 19/22/22
f 17/21/23 20/25/23 9/16/23
f 32/27/24 31/26/24 25/26/24 26/27/24
f 31/26/24 33/23/24 27/23/24 25/26/24
f 33/23/24 34/28/24 28/28/24 27/23/24
f 34/28/24 35/29/24 29/29/24 28/28/24
f 35/29/24 36/30/24 30/30/24 29/29/24
f 36/30/24 32/27/24 26/27/24 30/30/24
f 38/31/24 37/32/24 31/26/24 32/27/24
f 37/32/24 39/33/24 33/23/24 31/26/24
f 39/33/24 40/34/24 34/28/24 33/23/24
f 40/34/24 41/35/24 35/29/24 34/28/24
f 41/35/24 42/36/24 36/30/24 35/29/24
f 42/36/24 38/31/24 32/27/24 36/30/24
f 44/31/25 43/32/25 37/32/25 38/31/25
f 43/32/26 45/33/26 39/33/26 37/32/26
f 45/33/27 46/34/27 40/34/27 39/33/27
f 46/34/28 47/35/28 41/35/28 40/34/28
f 47/35/29 48/36/29 42/36/29 41/35/29
f 48/36/30 44/31/30 38/31/30 42/36/30
f 50/31/24 49/32/24 43/32/24 44/31/24
f 49/32/24 51/33/24 45/33/24 43/32/24
f 51/33/24 52/34/24 46/34/24 45/33/24
f 52/34/24 53/35/24 47/35/24 46/34/24
f 53/35/24 54/36/24 48/36/24 47/35/24
f 54/36/24 50/31/24 44/31/24 48/36/24
f 56/37/24 55/38/24 49/32/24 50/31/24
f 55/38/24 57/39/24 51/33/24 49/32/24
f 57/39/24 58/40/24 52/34/24 51/33/24
f 58/40/24 59/41/24 53/35/24 52/34/24
f 59/41/24 60/42/24 54/36/24 53/35/24
f 60/42/24 56/37/24 50/31/24 54/36/24
f 62/37/28 61/38/28 55/38/28 56/37/28
f 61/38/29 63/39/29 57/39/29 55/38/29
f 63/39/30 64/40/30 58/40/30 57/39/30
f 64/40/25 65/41/25 59/41/25 58/40/25
f 65/41/26 66/42/26 60/42/26 59/41/26
f 66/42/27 62/37/27 56/37/27 60/42/27
f 68/43/31 67/44/31 63/39/31 61/38/31
f 70/45/32 69/46/32 66/42/32 65/41/32
f 65/41/33 64/40/33 70/45/33
f 63/39/34 67/44/34 64/40/34
f 70/45/35 64/40/35 67/44/35
f 61/38/36 62/37/36 68/43/36
f 66/42/37 69/46/37 62/37/37
f 68/43/38 62/37/38 69/46/38
f 77/44/24 78/43/24 8/46/24 6/45/24
f 76/43/39 75/44/39 67/44/39 68/43/39
f 74/45/40 73/46/40 69/46/40 70/45/40
f 75/44/41 74/45/41 70/45/41 67/44/41
f 73/46/42 76/43/42 68/43/42 69/46/42
f 6/45/43 8/46/43 73/46/43 74/45/43
f 77/44/44 6/45/44 74/45/44 75/44/44
f 8/46/45 78/43/45 76/43/45 73/46/45
f 80/43/24 79/44/24 75/44/24 76/43/24
f 81/44/24 82/43/24 78/43/24 77/44/24
f 82/43/24 80/43/24 76/43/24 78/43/24
f 79/44/24 81/44/24 77/44/24 75/44/24
f 72/43/4 71/44/4 79/44/4 80/43/4
f 4/44/24 2/43/24 82/43/24 81/44/24
f 2/43/46 72/43/46 80/43/46 82/43/46
f 71/44/47 4/44/47 81/44/47 79/44/47
f 9/47/48 2/47/48 4/44/48 18/24/48 10/17/48
f 2/47/48 9/47/48 72/43/48
